<svg xmlns="http://www.w3.org/2000/svg" width="208" height="36" fill="none"><rect x="-4" y="-4" width="216" height="44" fill="#fff"/><g clip-path="url(#a)"><mask id="b" width="35" height="36" x="0" y="0" maskUnits="userSpaceOnUse" style="mask-type:luminance"><path fill="#fff" d="M34.466 0H0v36h34.466z"/></mask><g fill="#000" mask="url(#b)"><path d="M26.174 6.266c.34-.785.61-1.557.406-2.409-.479-1.975-2.342-2.675-4.24-3.149A25.2 25.2 0 0 0 10.933.601c-2.667.604-5.33 1.868-6.636 4.23-1.885 3.414-.77 8.545 2.925 10.534 3.392 1.828 7.979.532 11.174-1.143 3.375-1.77 6.294-4.544 7.763-7.92zM15.127 23.077c-.029-.661-.1-1.292-.515-1.84-.96-1.273-2.44-1.221-3.866-1.002a17.2 17.2 0 0 0-7.677 3.273c-1.59 1.215-2.96 2.9-3.063 4.965-.146 2.993 2.272 6.328 5.396 6.663 2.867.308 5.517-1.966 7.11-4.102 1.682-2.256 2.736-5.098 2.615-7.939zm17.271-7.699c-.966-1.486-2.361-2.477-4.331-1.658-1.97.82-3.715 2.773-5.053 4.411a23.7 23.7 0 0 0-3.488 5.802c-1.012 2.434-1.505 5.235-.389 7.622 1.612 3.449 6.241 5.555 9.842 3.83 2.987-1.428 4.458-4.813 5.094-7.945.595-2.93.572-6.095-.318-8.994-.306-.993-.746-2.13-1.357-3.068"/></g></g><path fill="#000" d="M197.584 35.308q-5.109 0-8.118-3.056t-3.01-8.756q0-3.42 1.413-6.112 1.414-2.736 3.877-4.332 2.509-1.597 5.701-1.597 2.964 0 5.154 1.232 2.235 1.185 3.511 3.511 1.278 2.28 1.369 5.61v1.004h-15.324v.501q0 4.242 2.052 6.477 2.052 2.189 5.61 2.189 1.733 0 3.101-.502 1.413-.5 2.828-1.46l1.231 1.551a13 13 0 0 1-4.242 2.782q-2.325.958-5.153.958m-5.336-14.777 9.942-.137q-.091-3.01-1.322-4.788-1.232-1.78-3.33-1.78-2.189 0-3.557 1.734-1.323 1.687-1.733 4.971m-17.392 13.455-3.056 1.368-8.437-18.927q-.503-1.186-.912-1.597-.411-.456-1.232-.957l-1.231-.639v-1.323h12.04v1.323l-1.277.41q-.867.275-1.277.639-.41.365-.41.867 0 .181.091.501.091.319.274.776l5.153 12.086 5.063-12.087q.228-.455.273-.775.092-.32.092-.502 0-.501-.411-.866-.41-.365-1.277-.638l-1.277-.411v-1.323h9.03v1.323l-1.505.775a4.8 4.8 0 0 0-1.14.821q-.411.411-.912 1.505zm-15.748.866h-12.177v-1.277l1.778-.73q1.003-.456 1.369-.957.364-.547.364-1.734V8.217q0-1.505-.41-2.098-.411-.593-1.368-.866l-1.597-.41V3.564l7.389-2.919 1.186.73v28.778q0 1.187.319 1.733.365.502 1.368.958l1.779.73zm-27.118.456q-3.42 0-6.066-1.46a10.5 10.5 0 0 1-4.104-4.195q-1.46-2.691-1.46-6.294 0-2.555.867-4.698.912-2.19 2.508-3.785a10.9 10.9 0 0 1 3.695-2.509q2.097-.912 4.56-.912 3.512 0 6.112 1.505 2.6 1.46 4.013 4.15 1.46 2.692 1.46 6.34 0 3.42-1.505 6.111a11.2 11.2 0 0 1-4.151 4.196q-2.6 1.551-5.929 1.551m0-2.326q2.737 0 4.333-2.554t1.596-6.978q0-4.514-1.596-7.07-1.596-2.553-4.333-2.553-2.691 0-4.332 2.554-1.597 2.554-1.597 6.978 0 4.47 1.597 7.07 1.641 2.553 4.332 2.553m-23.23 1.004-3.056 1.368-8.437-18.927q-.501-1.186-.912-1.597-.41-.456-1.231-.957l-1.232-.639v-1.323h12.041v1.323l-1.278.41q-.866.275-1.277.639-.41.365-.41.867 0 .181.091.501.091.319.274.776l5.154 12.086 5.062-12.087q.228-.455.274-.775.09-.32.091-.502 0-.501-.411-.866-.41-.365-1.277-.638l-1.277-.411v-1.323h9.031v1.323l-1.505.775a4.8 4.8 0 0 0-1.141.821q-.41.411-.912 1.505zm-27.08 0-3.055 1.368-8.438-18.927q-.501-1.186-.912-1.597-.41-.456-1.231-.957l-1.231-.639v-1.323h12.04v1.323l-1.277.41q-.867.275-1.277.639c-.41.364-.41.532-.41.867q0 .181.09.501.092.319.274.776l5.154 12.086 5.062-12.087q.229-.455.274-.775.09-.32.091-.502 0-.501-.41-.866-.411-.365-1.277-.638l-1.277-.411v-1.323h9.03v1.323l-1.505.775a4.8 4.8 0 0 0-1.14.821q-.411.411-.912 1.505zm-26.085 1.322q-5.109 0-8.119-3.056t-3.01-8.756q0-3.42 1.414-6.112 1.414-2.736 3.877-4.332 2.508-1.597 5.7-1.597 2.965 0 5.154 1.232 2.234 1.185 3.512 3.511 1.278 2.28 1.368 5.61v1.004H50.167v.501q0 4.242 2.053 6.477 2.052 2.189 5.61 2.189 1.733 0 3.1-.502 1.415-.5 2.828-1.46l1.232 1.551a13 13 0 0 1-4.242 2.782q-2.325.958-5.153.958m-5.337-14.777 9.943-.137q-.09-3.01-1.323-4.788-1.23-1.78-3.329-1.78-2.19 0-3.557 1.734-1.323 1.687-1.733 4.971Z"/><defs><clipPath id="a"><path fill="#000" d="M0 0h34.466v36H0z"/></clipPath></defs></svg>